<svg width="75" height="24" viewBox="0 0 75 24" fill="none" xmlns="http://www.w3.org/2000/svg">
<g clip-path="url(#clip0_3456_12689)">
<path fill-rule="evenodd" clip-rule="evenodd" d="M17.0624 5.78931V0.934448H4.88127H0V22.7594H4.88127V15.4771H14.6218V10.6223H4.88127V5.78931H17.0624ZM26.4952 0.934448H21.614V22.7594H26.4952V0.934448ZM30.8707 5.78931V0.934448H50.3738V5.78931H43.0519V22.7594H38.1706V5.78931H30.8707Z" fill="white"/>
<path fill-rule="evenodd" clip-rule="evenodd" d="M70.8223 12.0001H74.7361C74.89 12.0001 75 11.8688 75 11.7158C74.846 5.48317 69.481 0.518972 63.0826 0.956346C57.5857 1.32811 53.1442 5.7456 52.7704 11.2128C52.3306 17.5984 57.3219 22.9125 63.5883 23.0656C63.7423 23.0875 63.8742 22.9563 63.8742 22.8032V18.9106C63.8742 18.7794 63.7642 18.6481 63.6103 18.6481C59.9164 18.4951 56.97 15.346 57.2119 11.5845C57.4318 8.2605 60.1363 5.57065 63.4564 5.37383C67.2603 5.13327 70.4045 8.06368 70.5584 11.7376C70.5584 11.8907 70.6684 12.0001 70.8223 12.0001ZM72.7792 22.7813L74.6921 20.8787C75.0439 20.5288 75.0439 19.9821 74.6921 19.6322L68.0738 13.0497C67.722 12.6998 67.1723 12.6998 66.8205 13.0497L64.9076 14.9523C64.5558 15.3022 64.5558 15.8489 64.9076 16.1988L71.5259 22.7813C71.8777 23.1312 72.4274 23.1312 72.7792 22.7813Z" fill="#40B236"/>
</g>
<defs>
<clipPath id="clip0_3456_12689">
<rect width="75" height="22.1311" fill="white" transform="translate(0 0.934448)"/>
</clipPath>
</defs>
</svg>
