<svg width="76" height="23" viewBox="0 0 76 23" fill="none" xmlns="http://www.w3.org/2000/svg">
<g clip-path="url(#clip0_3460_14344)">
<path fill-rule="evenodd" clip-rule="evenodd" d="M17.5624 5.34021V0.485352H5.38127H0.5V22.3103H5.38127V15.0281H15.1218V10.1732H5.38127V5.34021H17.5624ZM26.9952 0.485352H22.114V22.3103H26.9952V0.485352ZM31.3707 5.34021V0.485352H50.8738V5.34021H43.5519V22.3103H38.6706V5.34021H31.3707Z" fill="#F6F7F8"/>
<path fill-rule="evenodd" clip-rule="evenodd" d="M71.322 11.551H75.2359C75.3898 11.551 75.4997 11.4198 75.4997 11.2667C75.3458 5.03414 69.9808 0.0699364 63.5824 0.507311C58.0855 0.879079 53.6439 5.29656 53.2702 10.7637C52.8304 17.1494 57.8216 22.4635 64.0881 22.6166C64.242 22.6385 64.3739 22.5072 64.3739 22.3542V18.4615C64.3739 18.3303 64.264 18.1991 64.1101 18.1991C60.4161 18.046 57.4698 14.8969 57.7117 11.1355C57.9315 7.81146 60.636 5.12161 63.9562 4.92479C67.76 4.68424 70.9043 7.61465 71.0582 11.2886C71.0582 11.4417 71.1681 11.551 71.322 11.551ZM73.279 22.3323L75.1919 20.4297C75.5437 20.0798 75.5437 19.5331 75.1919 19.1832L68.5736 12.6007C68.2218 12.2508 67.6721 12.2508 67.3203 12.6007L65.4074 14.5033C65.0556 14.8532 65.0556 15.3999 65.4074 15.7498L72.0257 22.3323C72.3775 22.6822 72.9272 22.6822 73.279 22.3323Z" fill="#F6F7F8"/>
</g>
<defs>
<clipPath id="clip0_3460_14344">
<rect width="75" height="22.1311" fill="white" transform="translate(0.5 0.485352)"/>
</clipPath>
</defs>
</svg>
